<?xml version="1.0" encoding="utf-8"?>
<!-- Generator: Adobe Illustrator 24.3.0, SVG Export Plug-In . SVG Version: 6.00 Build 0)  -->
<svg version="1.1" id="Layer_1" xmlns="http://www.w3.org/2000/svg" xmlns:xlink="http://www.w3.org/1999/xlink" x="0px" y="0px"
	 viewBox="0 0 512 512" style="enable-background:new 0 0 512 512;" xml:space="preserve">
<style type="text/css">
	.st0{stroke:#0B0000;stroke-width:64;stroke-opacity:0;}
	.st1{fill:#FFFFFF;stroke:#000000;stroke-width:5;stroke-miterlimit:10;}
</style>
<path class="st0" d="M64,64h384v384H64V64z"/>
<g transform="translate(0,0)">
	<path class="st1" d="M74.5,36C53.2,36,36,53.2,36,74.5v363c0,21.3,17.2,38.5,38.5,38.5l0,0h363c21.3,0,38.5-17.2,38.5-38.5l0,0
		v-363c0-21.3-17.2-38.5-38.5-38.5H74.5z M123.5,72c27,0.8,48.5,22.9,48.5,50c0,27.6-22.4,50-50,50s-50-22.4-50-50
		c0-27.6,22.4-50,50-50C122.5,72,123,72,123.5,72z M391.5,72c27,0.8,48.5,22.9,48.5,50c0,27.6-22.4,50-50,50s-50-22.4-50-50
		c0-27.6,22.4-50,50-50C390.5,72,391,72,391.5,72z M256,206c27.6,0,50,22.4,50,50s-22.4,50-50,50s-50-22.4-50-50S228.4,206,256,206z
		 M123.5,340c27,0.8,48.5,22.9,48.5,50c0,27.6-22.4,50-50,50s-50-22.4-50-50c0-27.6,22.4-50,50-50C122.5,340,123,340,123.5,340z
		 M391.5,340c27,0.8,48.5,22.9,48.5,50c0,27.6-22.4,50-50,50s-50-22.4-50-50c0-27.6,22.4-50,50-50C390.5,340,391,340,391.5,340z"/>
</g>
</svg>
