<?xml version="1.0" encoding="utf-8"?>
<!-- Generator: Adobe Illustrator 24.3.0, SVG Export Plug-In . SVG Version: 6.00 Build 0)  -->
<svg version="1.1" id="Layer_1" xmlns="http://www.w3.org/2000/svg" xmlns:xlink="http://www.w3.org/1999/xlink" x="0px" y="0px"
	 viewBox="0 0 512 512" style="enable-background:new 0 0 512 512;" xml:space="preserve">
<style type="text/css">
	.st0{fill:#FFFFFF;stroke:#000000;stroke-width:5;stroke-miterlimit:10;}
</style>
<g transform="translate(0,0)">
	<path class="st0" d="M255.8,44.8c-6.2,0-12.4,1.4-17.1,4.2L85.9,137.3c-9.6,5.5-9.6,14.3,0,19.8l152.8,88.4
		c9.6,5.5,24.7,5.5,34.3,0l152.8-88.4c9.6-5.5,9.6-14.3,0-19.8L272.9,48.9C268.1,46.1,261.9,44.8,255.8,44.8L255.8,44.8z
		 M254.9,97.9c9,0.1,17.1,2.2,24.3,6.2c4.9,2.8,8.1,5.9,9.7,9.4c1.5,3.5,1.6,8.1,0.3,13.9l-1.6,5.7c-1.1,4.1-1.3,7-0.7,8.8
		c0.6,1.8,2,3.3,4.2,4.5l3.4,1.9l-33.2,18.6l-3.7-2.1c-4.1-2.3-6.7-4.9-7.9-7.8c-1.2-2.9-1-7.6,0.6-14l1.5-5.7
		c0.9-3.4,1-6.2,0.3-8.4c-0.7-2.2-2.1-4-4.4-5.3c-3.5-2-7.7-2.7-12.6-2.1c-5,0.5-10.1,2.3-15.4,5.2c-5,2.8-9.5,6.3-13.6,10.5
		c-4.1,4.2-7.6,8.9-10.6,14.3l-23.7-13.3c5.3-5.3,10.5-10,15.7-14c5.1-4,10.6-7.6,16.3-10.8c15-8.4,28.9-13.4,41.8-15
		C248.8,98,251.9,97.8,254.9,97.9L254.9,97.9z M305.7,154.6l26.8,15l-33.2,18.6l-26.8-15L305.7,154.6L305.7,154.6z M75.7,173.8
		c-5.8-0.2-9.7,4.3-9.7,12.3v157.7c0,11.1,7.6,24.2,17.1,29.7l146.9,84.8c9.6,5.5,17.1,1.2,17.1-9.9V290.8
		c0-11.1-7.6-24.2-17.1-29.7L83.1,176.2C80.5,174.7,77.9,173.9,75.7,173.8L75.7,173.8z M436.4,173.8c-2.2,0.1-4.8,0.8-7.5,2.4
		L282,261.1c-9.6,5.5-17.1,18.6-17.1,29.7v157.7c0,11,7.6,15.4,17.1,9.9L429,373.5c9.6-5.5,17.1-18.6,17.1-29.7V186.1
		C446.1,178.2,442.2,173.7,436.4,173.8L436.4,173.8z M114.9,237.6c6.6,1.4,12.5,3,18,5c5.4,2,10.6,4.4,15.7,7.3
		c13.2,7.6,23.3,16.3,30.2,26.1c6.9,9.7,10.4,20,10.4,31c0,5.6-1.1,10.1-3.2,13.4c-2.1,3.2-5.7,5.9-10.8,8.1l-5.2,1.9
		c-3.7,1.4-6.1,2.9-7.2,4.5c-1.1,1.5-1.7,3.5-1.7,6.1v3.9l-29.3-16.9v-4.2c0-4.7,0.9-8.4,2.7-11c1.8-2.7,5.6-5.1,11.3-7.5l5.2-2
		c3.1-1.2,5.3-2.7,6.7-4.6c1.5-1.8,2.2-4,2.2-6.7c0-4-1.3-7.9-3.9-11.7c-2.6-3.8-6.2-7-10.9-9.7c-4.4-2.5-9.1-4.3-14.2-5.3
		c-5.1-1-10.4-1.3-15.9-0.6L114.9,237.6L114.9,237.6z M384.4,246.2c1.5,0,2.9,0.2,4.2,0.5c6.9,1.7,10.4,8,10.4,19
		c0,5.6-1.1,11.3-3.2,17c-2.1,5.6-5.7,12.5-10.8,20.6l-5.2,7.9c-3.7,5.7-6.1,10-7.2,12.8c-1.1,2.8-1.7,5.5-1.7,8.1v3.9l-29.3,16.9
		v-4.2c0-4.7,0.9-9.4,2.7-14.1c1.8-4.7,5.6-11.5,11.3-20.5l5.2-8c3.1-4.8,5.3-8.9,6.7-12.4c1.5-3.5,2.2-6.6,2.2-9.2
		c0-4-1.3-6.4-3.9-7.2c-2.6-0.8-6.2,0.1-10.9,2.8c-4.4,2.5-9.1,6.2-14.2,11.1c-5.1,4.8-10.4,10.8-15.9,17.7V282
		c6.6-6.2,12.5-11.4,18-15.7c5.4-4.3,10.6-7.9,15.7-10.8C369.2,249.3,377.8,246.2,384.4,246.2L384.4,246.2z M131.7,340.7l29.3,16.9
		v30.7l-29.3-16.9L131.7,340.7L131.7,340.7z M371,348.8v30.7l-29.3,16.9v-30.7L371,348.8L371,348.8z"/>
</g>
</svg>
