<?xml version="1.0" encoding="utf-8"?>
<!-- Generator: Adobe Illustrator 24.3.0, SVG Export Plug-In . SVG Version: 6.00 Build 0)  -->
<svg version="1.1" id="Layer_1" xmlns="http://www.w3.org/2000/svg" xmlns:xlink="http://www.w3.org/1999/xlink" x="0px" y="0px"
	 viewBox="0 0 512 512" style="enable-background:new 0 0 512 512;" xml:space="preserve">
<style type="text/css">
	.st0{stroke:#0B0000;stroke-width:256;}
	.st1{fill:#231F20;}
</style>
<path class="st0" d="M256,256L256,256L256,256L256,256z"/>
<g transform="translate(0,0)">
	<path class="st1" d="M256,25c-14.2,0-29.2,2.8-44.1,8c52.5,25.8,110.4,48.6,178.2,66.4c-6.7-8.9-14.2-17.2-22.3-24.8
		C335.3,43.9,293,25,256,25z M186.1,40.1c-24.2,8-44.4,22.9-58.3,37.4c11.1,4.1,22,7.6,31.2,10.3c25.7,7.8,60.5,17.1,95.5,26.1
		c33.9,8.7,67.9,17,94.2,23c20-0.4,40-0.5,60-0.5c2.3-4.4,3.8-9.1,2.2-13.5C322.8,102.3,250.4,73.2,186.1,40.1L186.1,40.1z
		 M118.8,93.2c-3.4,8.8-6.8,17.8-10.3,26.7c-5.8,10.5-10.4,21.5-13.8,32.9c61.7-7.1,123.3-11.5,184.8-13.9
		c-9.6-2.4-19.4-4.8-29.4-7.4c-35.2-9.1-70.1-18.5-96.3-26.4C141.9,101.5,129.5,97.6,118.8,93.2L118.8,93.2z M417.8,154.5
		c-112.8-0.3-225.6,4.4-338.3,18.2c-3.1,10.1-1.7,19.6,3,29.7c117.4-15.8,231.5-10.1,342.7-5.1c0.3-6.6,0.5-13.7-0.2-20.7
		C424.3,167.6,421.9,159.8,417.8,154.5z M139.1,209.6c0,0,19.3,39.9,37.2,49.2C191,266.4,217.9,248,228,236
		C197.4,239.4,166.4,227,139.1,209.6L139.1,209.6z M372.9,209.6C345.6,227,314.6,239.4,284,236c10.1,12,37,30.4,51.7,22.8
		C353.6,249.5,372.9,209.6,372.9,209.6L372.9,209.6z M405.8,214.5c-2.9,16.7-6.2,33.8-11.6,51.3c5.6-0.1,11.1-0.3,16.7-0.6
		c1.4-17,4.7-33.7,9.1-50.1C415.3,214.9,410.6,214.7,405.8,214.5L405.8,214.5z M103,217.9l-18.8,2.4l5.7,20.9l0.6,0.1
		c6,1.4,12,2.7,18,3.9C105.9,236.4,103.8,227.3,103,217.9L103,217.9z M71.7,243c-8.8,23-20,45.5-34,65.9c11,2.8,21.9,7,30,14.4
		c6.1-7.1,11.8-15.7,17.4-25.2c-1.4-5.7-2.3-11.4-3-16.9L71.7,243z M98.4,261.3c1.4,18,2.9,34.7,10.8,51
		c92.3,19.3,191.1,22.2,291.1,22.8c5.3-18.5,7.9-35.8,7.8-51.8C306.1,287.2,201.3,283.5,98.4,261.3L98.4,261.3z M116.3,332.1
		c8,18.5,14.9,37.4,19.2,57.5c114.2-25.5,211.9-19.8,254.3-18.2l4.7-18.3C299.8,352.5,205.6,349.6,116.3,332.1z M293.3,388.2
		c-7.5,0.3-15.3,0.6-23.2,1.1l8.6,19.1L293.3,388.2z M360.8,388.4c-5.6,12-11.6,24.4-18.8,37.3c5.7-0.8,11.4-1.6,17.1-2.5
		c4.7-11.3,9.4-22.7,14.2-34.4C369.4,388.7,365.2,388.5,360.8,388.4L360.8,388.4z M392.4,390.1c-5.8,14.2-11.6,28.1-17.3,41.6
		c7.1,18.1,16.2,34.3,29.6,47.1c7-14.7,16-27.7,29.1-35.6c-17-12.3-29.5-28.8-38.6-47.2C394.2,394,393.3,392.1,392.4,390.1
		L392.4,390.1z M242.9,391.2c-7.2,0.7-14.6,1.4-22.1,2.3c4.9,8.5,9.8,17,14.7,25.4C238,409.7,240.4,400.4,242.9,391.2L242.9,391.2z
		 M160.3,402.8c-4.9,1-9.7,2-14.6,3c2.1,5.2,4.3,10.3,6.4,15.4c5.2,1.2,10.3,2.3,15.5,3.2C164.6,417.2,162.3,409.9,160.3,402.8
		L160.3,402.8z M204.6,407.2c-2.2,7.2-4.4,14.5-6.6,21.7c6.5,0.8,13,1.4,19.5,1.8C213.2,422.9,208.9,415,204.6,407.2z M259.4,411.3
		c-2.2,6.9-4.5,13.8-6.7,20.7c5.9,0,11.7-0.1,17.6-0.2C266.7,425,263,418.1,259.4,411.3z M301.1,412.5c-2.2,6.1-4.6,12.1-6.9,18.1
		c4.6-0.3,9.3-0.7,13.9-1.1C305.8,423.8,303.4,418.2,301.1,412.5z M160.5,441.4c2.5,6.1,5,12.2,7.4,18.1c9,13,29,22.8,52.6,27.8
		c20.9-12.4,42-23.9,58.6-37.8C239.5,451.1,199.4,449,160.5,441.4z M351,442.6c-14.7,2.2-29.5,3.9-44.5,5.1
		c-15.4,18.2-35.8,31.2-56.2,43.2c1.9,0.1,3.8,0.1,5.7,0.1c37.8,0,74.8-12.4,88.1-31.5C346.3,453.9,348.6,448.3,351,442.6L351,442.6
		z"/>
</g>
</svg>
