<?xml version="1.0" encoding="utf-8"?>
<!-- Generator: Adobe Illustrator 24.3.0, SVG Export Plug-In . SVG Version: 6.00 Build 0)  -->
<svg version="1.1" id="Layer_1" xmlns="http://www.w3.org/2000/svg" xmlns:xlink="http://www.w3.org/1999/xlink" x="0px" y="0px"
	 viewBox="0 0 512 512" style="enable-background:new 0 0 512 512;" xml:space="preserve">
<style type="text/css">
	.st0{stroke:#0B0000;stroke-width:256;}
	.st1{fill:#231F20;}
</style>
<path class="st0" d="M256,256L256,256L256,256L256,256z"/>
<g transform="translate(0,0)">
	<path class="st1" d="M256,13.5c50.1,0,87.2,18.3,113.2,47.8c26.1,29.5,41.4,69.4,51.6,113.2c18.2,78.2,20.1,169.9,31.5,238.6
		c-8.5-12.6-16.4-25.2-23.2-36.6c-7.5-63.4-11.4-135.8-25.9-198c-9.8-42.2-24.5-79.3-47.4-105.3c-23-26-53.9-41.7-99.8-41.7
		s-76.8,15.7-99.8,41.7c-22.9,26-37.6,63.1-47.4,105.3c-14.5,62.2-18.3,134.6-25.9,197.9c-6.8,11.4-14.7,24-23.2,36.7
		C71,344.3,73.1,252.7,91.2,174.5c10.2-43.8,25.5-83.7,51.6-113.2C168.8,31.8,205.9,13.5,256,13.5z M192,70.5v32l26-16l6,32l32-16
		l32,16l6-32l26,16v-32l42,48l-26-16l16,32l-32-16l16,32l-32-16v32l-32-16l-16,32l-16-32l-32,16v-32l-32,16l16-32l-32,16l16-32
		l-26,16L192,70.5z M358.7,241.5c-0.1,3.5-0.2,6.9-0.4,10.3l-30.9-10.3H358.7z M314.3,241.5L267,273l10,15l17.7-11.8
		c2.7,7.3,11.2,12.4,20.8,12.4c12,0,21.7-7.7,21.7-17.2c0-3.1-1-6.1-3-8.7l22.6,7.5c-5.5,50.9-21.6,88.9-40.2,115.1
		c-11.4,16.2-23.7,28-34.7,35.5c-11,7.6-20.9,10.7-25.9,10.7s-14.9-3.1-25.9-10.7c-11-7.5-23.3-19.3-34.7-35.5
		c-18.6-26.2-34.7-64.2-40.2-115.1l22.6-7.5c-2,2.6-3,5.6-3,8.7c0,9.5,9.7,17.2,21.7,17.2c9.6,0,18.1-5.1,20.8-12.4L235,288l10-15
		l-47.3-31.5H314.3z M184.6,241.5l-30.9,10.3c-0.2-3.4-0.3-6.8-0.4-10.3H184.6z M321.4,258.4c1.5,2.3,2.4,5.5,2.4,8.8
		c0,6.7-3.4,12.1-7.6,12.1s-7.6-5.4-7.6-12.1v-0.3l12.7-8.5H321.4z M190.7,258.4l12.7,8.5v0.3c0,6.7-3.4,12.1-7.6,12.1
		c-4.2,0-7.6-5.4-7.6-12.1c0-3.3,0.9-6.5,2.4-8.8H190.7z M288,328.5h-64c0,0,20.1,16,32,16S288,328.5,288,328.5z M397.7,357.6
		c10,18.7,26.8,47.6,46.9,76.1c10.5,14.9,21.6,29.4,33.1,42C396,454,323.9,466,269.6,498.5c31.2-44,75.9-88.7,120.8-133.6
		L397.7,357.6z M114.3,357.6l7.3,7.3c44.9,44.9,89.6,89.6,120.8,133.6C188.1,466,116,454,34.3,475.7c11.5-12.6,22.5-27.1,33.1-42
		C87.5,405.2,104.3,376.3,114.3,357.6L114.3,357.6z M256,360.5c-12.5,0-23.9,2.7-29.1,7H216v18h8.5l7.5,27l12.1-27h23.8l12.1,27
		l7.5-27h8.5v-18h-10.9C279.9,363.2,268.5,360.5,256,360.5z"/>
</g>
</svg>
