<?xml version="1.0" encoding="utf-8"?>
<!-- Generator: Adobe Illustrator 24.3.0, SVG Export Plug-In . SVG Version: 6.00 Build 0)  -->
<svg version="1.1" id="Layer_1" xmlns="http://www.w3.org/2000/svg" xmlns:xlink="http://www.w3.org/1999/xlink" x="0px" y="0px"
	 viewBox="0 0 512 512" style="enable-background:new 0 0 512 512;" xml:space="preserve">
<style type="text/css">
	.st0{stroke:#0B0000;stroke-width:256;}
	.st1{fill:#231F20;}
</style>
<path class="st0" d="M256,256L256,256L256,256L256,256z"/>
<g transform="translate(0,0)">
	<path class="st1" d="M256,33c-8.5,0-21.3,5.7-35.1,16.2c-13.7,10.4-28.4,25.1-42.2,40.8c-19.6,22.4-37.3,47.1-48.4,64.6l49.6,37.2
		l49.2,12.3l2.3-6.9l17.1,5.7l-15,44.9l22.4,56.1l22.4-56.1l-15-44.9l17.1-5.7l2.3,6.9l49.2-12.3l49.6-37.2
		c-11.1-17.5-28.8-42.2-48.4-64.6c-13.7-15.7-28.4-30.3-42.2-40.8C277.3,38.7,264.5,33,256,33z M164.5,128.2l76,44l-9,15.6l-76-44
		L164.5,128.2z M347.5,128.2l9,15.6l-76,44l-9-15.6L347.5,128.2z M17.2,146.6c31.8,33,63.2,73.4,76.3,111.9c1.6-2.7,3.4-5.3,5.3-7.9
		c5-6.7,11-13,17.1-19.2c-8.9-12.9-11.8-29.1-12.6-42.9C74,164.4,49.4,150.9,17.2,146.6L17.2,146.6z M494.8,146.6
		c-32.2,4.2-56.8,17.8-86.1,41.9c-0.9,13.8-3.7,30-12.6,42.9c6.1,6.2,12.1,12.5,17.1,19.2c1.9,2.6,3.7,5.2,5.3,7.9
		C431.6,220,463,179.6,494.8,146.6L494.8,146.6z M121.1,170.1c0,0-0.1,0.1-0.1,0.1c0.1,16.4,2,44.1,13.3,55.4l6.4,6.4l-6.4,6.4
		c-8,8-15.7,15.8-21.2,23c-4.7,6.3-7.3,11.8-8,16.5l81.1,30.4c4.7-6.8,9.9-13.3,15.3-18.6l16-16l-0.7,22.7
		c-0.2,8.4-0.4,16.1-0.2,23.4l30.8,11.6L214.7,249h-51l-13.4,13.4l-12.7-12.7l11.3-11.3l-13.5-57.5L121.1,170.1z M390.9,170.1
		l-14.3,10.7l-13.5,57.5l11.3,11.3l-12.7,12.7L348.3,249h-51l-32.9,82.2l30.8-11.6c0.1-7.3,0-15-0.2-23.4l-0.7-22.7l16,16
		c5.4,5.4,10.6,11.8,15.3,18.6l55.2-20.7l25.9-9.7c-0.6-4.6-3.3-10.2-8-16.5c-5.4-7.2-13.2-15-21.2-23l-6.4-6.4l6.4-6.4
		c11.3-11.3,13.2-39,13.3-55.4C390.9,170.2,390.9,170.2,390.9,170.1L390.9,170.1z M157.9,197.6l7.8,33.4H183v-20l-10.9-2.7
		L157.9,197.6z M354.1,197.6l-14.2,10.6L329,211v20h17.3L354.1,197.6z M201,215.5V231h19.2l3.3-9.9L201,215.5z M311,215.5l-22.5,5.6
		l3.3,9.9H311V215.5z M105.2,278c-0.1,0.4-0.1,0.8-0.1,1.3c7.8,37.4,35,88.5,66.1,129.3c15.7,20.6,32.3,38.6,47.6,51.3
		C234,472.4,248,479,256,479s22-6.6,37.3-19.2c15.2-12.6,31.9-30.7,47.6-51.3c31.1-40.8,58.3-91.8,66.1-129.3c0-0.4-0.1-0.8-0.1-1.3
		l-48,72L256,435.7l-102.8-85.6L105.2,278z M151,314.2l15.8,23.7l3,2.5c1.8-5.4,4.3-10.9,7.2-16.4L151,314.2z M361,314.2l-25.9,9.7
		c2.9,5.5,5.4,11,7.2,16.4l3-2.5L361,314.2z M198.9,322c-1.8,2.8-3.5,5.6-5,8.4c-4.3,7.8-7.2,15.7-8.3,21.3l19.7,13.1
		C201.1,350.4,199.4,336.6,198.9,322z M313.1,322c-0.5,14.7-2.2,28.5-6.3,42.7l19.7-13.1c-1.2-5.5-4.1-13.4-8.3-21.3
		C316.6,327.5,314.9,324.7,313.1,322z M293.9,339.4L265,350.2v54.5l7.8-6.5L280,384C288,367.9,292,354,293.9,339.4L293.9,339.4z
		 M218.1,339.4C220,354,224,367.9,232,384l7.2,14.3l7.8,6.5v-54.5L218.1,339.4z"/>
</g>
</svg>
