<?xml version="1.0" encoding="utf-8"?>
<!-- Generator: Adobe Illustrator 24.3.0, SVG Export Plug-In . SVG Version: 6.00 Build 0)  -->
<svg version="1.1" id="Layer_1" xmlns="http://www.w3.org/2000/svg" xmlns:xlink="http://www.w3.org/1999/xlink" x="0px" y="0px"
	 viewBox="0 0 512 512" style="enable-background:new 0 0 512 512;" xml:space="preserve">
<style type="text/css">
	.st0{stroke:#0B0000;stroke-width:256;}
	.st1{fill:#231F20;}
</style>
<path class="st0" d="M256,256L256,256L256,256L256,256z"/>
<g transform="translate(0,0)">
	<path class="st1" d="M256,41c-29,0-56.2,11.5-78.4,31.1c1.6,1.5,3.2,3,4.7,4.5c9.8,9.5,18.4,17.2,27,18.5c5,0.7,11.1-1.4,18.7-4.9
		c7.6-3.5,16.6-8.3,27.6-8.3c11.2,0,20.2,4.8,28,8.3c7.8,3.5,14,5.7,19.1,5c8.6-1.3,17.2-9,27-18.5c1.5-1.5,3.1-3,4.7-4.5
		C312.2,52.5,285,41,256,41z M143.6,73c-1.6-0.1-5.9,2-9.2,5.4c-4.1,4.1-8.8,9-11.5,13.4c-2.7,4.4-3.2,7.1-2.5,9
		c3.6,9.5,12.9,14.1,27.2,17.6c14.2,3.4,31.7,4.6,46.9,9c20.5,5.9,41,10.9,61.1,11c20.3,0,41.2-5.1,62-11c15.2-4.3,32.7-5.6,46.9-9
		c14.2-3.4,23.5-8.1,27.2-17.6c0.7-1.9,0.3-4.7-2.5-9c-2.7-4.4-7.3-9.3-11.5-13.4c-3.3-3.3-7.6-5.4-9.2-5.4
		c-8.5,0.4-16.6,7.2-26.3,16.6c-9.7,9.3-20.5,20.9-36.8,23.4c-11.4,1.7-21-2.7-29.1-6.4c-8.1-3.7-15-6.7-20.5-6.7
		c-5.4,0-12.2,3-20.2,6.7c-8,3.7-17.5,8-28.8,6.4c-16.3-2.4-27.2-14-36.9-23.3C160.2,80.2,152,73.4,143.6,73L143.6,73z M135.1,133.5
		c-9,22.3-14.1,47.6-14.1,74.5c0,67.5,32.2,124.9,78,151.3v-5.8h18v9c0,0-0.1,4.9,4.2,10.6c4.3,5.7,12.8,12.4,34.8,12.4
		s30.5-6.7,34.8-12.4c4.3-5.7,4.2-10.6,4.2-10.6v-9h18v5.8c45.8-26.5,78-83.8,78-151.3c0-26.9-5.1-52.1-14.1-74.4
		c-2.7,0.9-5.5,1.7-8.2,2.3c-16.3,3.9-33.8,5.3-46.2,8.8c-21.2,6-43.7,11.7-67,11.7c-23,0-45.1-5.7-66-11.7
		c-12.4-3.5-29.8-4.9-46.2-8.8C140.6,135.2,137.9,134.4,135.1,133.5L135.1,133.5z M106.1,170.7c-6.3,1.1-12,2.6-16.6,4.7
		c-9.6,4.3-14.9,9.8-16.7,18.4c-1.8,8.8,4.3,19,15.3,29.2c5.2,4.9,11,9.3,16.7,13.3c-1.2-9.3-1.8-18.7-1.8-28.4
		C103,195.3,104.1,182.8,106.1,170.7L106.1,170.7z M405.9,170.7c2,12.1,3.1,24.5,3.1,37.3c0,9.6-0.6,19.1-1.8,28.4
		c5.7-4.1,11.5-8.5,16.7-13.3c11-10.2,17.1-20.4,15.3-29.2c-1.8-8.6-7.1-14.1-16.7-18.4C417.8,173.4,412.2,171.8,405.9,170.7
		L405.9,170.7z M151,179.4h82v18h-17.9c1.2,3.3,1.9,6.9,1.9,10.6c0,14.5-10.4,27.8-25,27.8s-25-13.3-25-27.8c0-3.7,0.7-7.3,1.9-10.6
		H151V179.4z M279,179.4h82v18h-17.9c1.2,3.3,1.9,6.9,1.9,10.6c0,14.5-10.4,27.8-25,27.8s-25-13.3-25-27.8c0-3.7,0.7-7.3,1.9-10.6
		H279V179.4z M192,198.2c-3.1,0-7,3.6-7,9.8s3.9,9.8,7,9.8s7-3.6,7-9.8S195.1,198.2,192,198.2z M320,198.2c-3.1,0-7,3.6-7,9.8
		s3.9,9.8,7,9.8s7-3.6,7-9.8S323.1,198.2,320,198.2z M223.4,227.3l6.7,6c10.2,9.3,18.7,12.3,26.6,12.1c7.9-0.3,16.3-4.2,25.4-12.1
		l6.8-5.9l11.9,13.5l-6.8,5.9c-11,9.7-23.3,16.2-36.6,16.6c-13.3,0.5-26.8-5.3-39.4-16.7l-6.7-6.1L223.4,227.3L223.4,227.3z
		 M183,255.5l18,1.1c-0.5,8.8-2.6,16.4-5.8,23c46.5,15.5,75.1,15.5,121.6,0c-3.2-6.6-5.3-14.2-5.8-23l18-1.1
		c1.3,21.3,12.4,30.7,28,41l-10,15c-6.9-4.6-13.8-9.9-19.7-16.4l-4.4,1.5c-49.1,16.4-84.6,16.4-133.7,0l-4.4-1.5
		c-5.9,6.6-12.9,11.9-19.7,16.4l-10-15C170.6,286.2,181.7,276.7,183,255.5L183,255.5z M129.8,312.6c-11.5,7.1-19.8,15.4-24.2,24.3
		c15.7,60.6,38.2,93.9,64.3,116.3c23,19.7,49.4,31.2,77.1,44.5V441h-32v-18h32v-19.9c-20.6-1.9-33.4-10.1-40.2-19.2
		c-0.2-0.3-0.5-0.7-0.7-1C174.7,369.9,148.1,344.9,129.8,312.6L129.8,312.6z M382.2,312.6c-18.3,32.3-44.9,57.3-76.3,70.4
		c-0.2,0.3-0.4,0.7-0.7,1c-6.8,9.1-19.6,17.3-40.2,19.2V423h32v18h-32v56.7c27.8-13.3,54.2-24.8,77.1-44.5
		c26.1-22.4,48.6-55.6,64.3-116.3C402,328,393.7,319.7,382.2,312.6L382.2,312.6z M231,327h50v18h-50V327z M89.1,345.3
		c-19.8,1.4-39.7,8.2-54.7,16.6c-6.5,3.6-12.1,7.5-16.4,11.1v121h37v-39h18v39h125.6c-13.9-7.5-27.5-16.1-40.5-27.2
		C129.8,442.5,105.4,406.2,89.1,345.3L89.1,345.3z M422.9,345.3c-16.3,61-40.7,97.3-69,121.6c-13,11.1-26.6,19.7-40.5,27.2H439v-39
		h18v39h37V373c-4.3-3.6-9.9-7.5-16.4-11.1C462.6,353.5,442.7,346.6,422.9,345.3L422.9,345.3z"/>
</g>
</svg>
